<svg width="50" height="52" viewBox="0 0 50 52" fill="none" xmlns="http://www.w3.org/2000/svg">
<path d="M25.0955 6.86633C25.0889 6.86468 25.0823 6.86468 25.0757 6.86633C25.0691 6.86633 25.0625 6.86469 25.0559 6.86469V6.86633C16.5539 6.97022 9.66455 13.914 9.66455 22.4407C9.66455 30.9692 16.5539 37.9096 25.0559 38.0152V38.0168C25.0625 38.0168 25.0691 38.0168 25.0757 38.0152C25.0823 38.0152 25.0889 38.0168 25.0955 38.0168V38.0152C33.5992 37.9129 40.4869 30.9725 40.4869 22.4407C40.4885 13.9173 33.5992 6.97352 25.0955 6.86633Z" fill="black"/>
<path d="M43.3513 35.5302C43.7999 34.8788 44.1033 34.1912 44.2335 33.5316C44.3737 32.8374 44.3358 32.1861 44.1527 31.6271L44.1494 31.6238C44.1461 31.6123 44.1428 31.5991 44.1395 31.5892C44.1297 31.5677 44.1198 31.5446 44.1165 31.5216L44.1132 31.5133C43.8724 30.8274 43.8427 29.9781 44.0274 29.1042L44.0192 29.0992C44.0538 28.9508 44.0901 28.8041 44.1379 28.654C44.2698 28.255 44.4413 27.884 44.6375 27.5476C45.3829 26.4972 47.5282 25.5903 47.5282 22.3105C47.5282 18.8773 44.7612 17.9473 44.2401 16.4534C44.2269 16.4204 44.2104 16.4023 44.1973 16.3726C44.1692 16.3 44.1412 16.2308 44.1165 16.1566C43.785 15.1095 43.757 14.0706 44.0307 13.2511L44.0522 13.195C44.2302 12.6657 44.2748 12.0309 44.1593 11.3564H44.1577V11.3515C44.1428 11.2658 44.1231 11.18 44.1049 11.0926L44.1033 11.0662C44.0835 10.9887 44.0637 10.9096 44.0406 10.8321L44.0225 10.7727C44.006 10.7051 43.9829 10.6359 43.9565 10.5699L43.9235 10.4809L43.8592 10.3176L43.8098 10.189L43.7603 10.0835C43.7323 10.0224 43.7059 9.96473 43.6762 9.90537L43.6613 9.87733C43.5245 9.6135 43.3662 9.35296 43.1831 9.10232L43.1502 9.0578L43.132 9.03472C42.6324 8.35699 42.0355 7.83098 41.4171 7.48634C40.8004 7.13841 40.1656 6.97187 39.5835 6.97681H39.5769C39.562 6.97681 39.5505 6.97681 39.5406 6.97517C39.5159 6.97681 39.4944 6.97846 39.468 6.97681H39.4581C38.7343 6.9966 37.9147 6.7608 37.1414 6.31228L37.1364 6.31723C37.0094 6.23973 36.8792 6.15563 36.7539 6.06494C35.8684 5.41195 35.2401 4.58583 34.9829 3.763L34.9631 3.70363C34.7982 3.17102 34.4618 2.63346 33.9704 2.15526V2.15361C33.9078 2.09095 33.8418 2.02994 33.7742 1.97387L33.7511 1.95244C33.6901 1.90132 33.6291 1.84855 33.5648 1.79909L33.517 1.76116L33.3422 1.63419L33.2647 1.58142L33.1163 1.48413L33.0008 1.41323L32.8986 1.35552C32.8409 1.32089 32.7832 1.29121 32.7255 1.26152L32.6974 1.24668C32.4352 1.11312 32.1533 0.994393 31.8565 0.898754L31.8037 0.882264L31.7707 0.870722C30.9693 0.62008 30.1762 0.545877 29.4721 0.628325C28.768 0.712422 28.1562 0.948223 27.6895 1.29945L27.6829 1.3011C27.673 1.31099 27.6615 1.31759 27.65 1.32419C27.6335 1.34232 27.6153 1.35552 27.5922 1.36706L27.5873 1.372C27.0085 1.81722 26.2121 2.10414 25.32 2.19978V2.20803C25.2392 2.21627 25.1567 2.21792 25.0759 2.21957C24.9935 2.21792 24.911 2.21792 24.8319 2.20803V2.20143C23.9398 2.10579 23.1417 1.81887 22.5646 1.37365L22.5596 1.36871C22.5398 1.35387 22.52 1.34232 22.5036 1.32254C22.492 1.31594 22.4805 1.30934 22.4706 1.29945L22.4656 1.2978C21.9973 0.946574 21.3856 0.710773 20.6815 0.626676C19.979 0.544228 19.1875 0.618431 18.3828 0.869073L18.3515 0.880615L18.2987 0.898754C18.0019 0.994393 17.7216 1.11312 17.4577 1.24668L17.4297 1.26152C17.372 1.29121 17.3143 1.32089 17.2566 1.35552L17.1543 1.41323L17.0389 1.48413L16.8905 1.58142L16.813 1.63419L16.6415 1.75786L16.592 1.79744C16.5277 1.84691 16.4667 1.89802 16.4057 1.94914L16.3826 1.97058C16.315 2.02664 16.2491 2.08765 16.1864 2.15031L16.1847 2.15196C15.6934 2.63016 15.3586 3.16937 15.1937 3.70033L15.1739 3.76135C14.9183 4.58418 14.2901 5.41195 13.4046 6.06329C13.2776 6.15728 13.1457 6.23973 13.0204 6.31723L13.0138 6.31064C12.2404 6.75915 11.4226 6.99495 10.6987 6.97681H10.6888C10.6624 6.97846 10.6393 6.97681 10.6162 6.97517C10.6014 6.97681 10.5931 6.97681 10.5766 6.97681H10.5717C9.98631 6.97187 9.35476 7.13676 8.73805 7.48469C8.11969 7.82933 7.52277 8.35534 7.02314 9.03307L7.00335 9.0578L6.97037 9.10397C6.78569 9.35296 6.62903 9.61515 6.49217 9.87898L6.47733 9.90537C6.4493 9.96473 6.42127 10.0224 6.39488 10.0835L6.34541 10.189L6.2943 10.3176L6.22999 10.4825L6.2003 10.5699C6.17557 10.6359 6.15249 10.7051 6.13435 10.7711L6.11621 10.8321C6.09312 10.9079 6.07004 10.9871 6.05355 11.0662L6.0486 11.0943C6.02881 11.18 6.00738 11.2691 5.99418 11.3515V11.3548C5.87876 12.0309 5.92328 12.6641 6.10302 13.195L6.1228 13.2511C6.39653 14.0706 6.3685 15.1095 6.03706 16.1566C6.01397 16.2291 5.98429 16.2984 5.95626 16.3709C5.94142 16.4006 5.92493 16.4204 5.91339 16.4517C5.39231 17.9457 2.62536 18.8757 2.62536 22.3088C2.62536 25.5886 4.77066 26.4955 5.51599 27.5459C5.71221 27.8823 5.88206 28.2533 6.01562 28.6524C6.06344 28.8024 6.10137 28.9492 6.13435 29.0976L6.1261 29.1025C6.31243 29.9765 6.2844 30.8257 6.042 31.5117L6.03871 31.5199C6.03541 31.543 6.02552 31.5661 6.01562 31.5875C6.01232 31.6007 6.00903 31.6139 6.00573 31.6221L6.00243 31.6254C5.81775 32.1844 5.78147 32.8358 5.92163 33.53C6.0519 34.1879 6.35531 34.8772 6.80382 35.5285L0.737305 46.8948H7.20782L10.4942 51.878L16.0858 42.6702C16.1303 42.7147 16.16 42.7691 16.2078 42.812C16.7289 43.2885 17.4149 43.6942 18.2163 43.9564C18.5131 44.0536 18.8099 44.1229 19.1018 44.1691L19.1314 44.174C19.199 44.1839 19.2634 44.1905 19.326 44.1988L19.448 44.2152L19.5833 44.2268L19.758 44.2383H19.8537H20.0664H20.1258C20.2066 44.2334 20.289 44.2301 20.3665 44.2218L20.3962 44.2202C20.4869 44.2119 20.5743 44.1971 20.6633 44.1856H20.665C21.3427 44.085 21.9297 43.8475 22.3766 43.5128L22.4244 43.4782C23.0856 42.9851 24.0338 42.6949 25.0776 42.6636C26.1214 42.6966 27.0695 42.9851 27.7308 43.4782L27.7769 43.5128C28.2238 43.8475 28.8108 44.0883 29.4902 44.1856C29.5809 44.1971 29.6666 44.2119 29.7573 44.2202L29.7887 44.2218C29.8678 44.2301 29.9503 44.2334 30.0294 44.2383H30.0888H30.3031H30.3971L30.5719 44.2268L30.7071 44.2152L30.8291 44.1988C30.8918 44.1905 30.9561 44.1839 31.0237 44.174L31.0534 44.1691C31.3469 44.1229 31.6421 44.0536 31.9389 43.9564C32.7386 43.6942 33.4246 43.2885 33.949 42.812C33.9952 42.7691 34.0265 42.7147 34.0694 42.6702L39.6626 51.878L42.9473 46.8965H49.4179L43.3513 35.5302ZM41.0824 27.1996C40.901 27.8131 40.6883 28.4133 40.436 29.0053C39.5851 31.0137 38.3715 32.8176 36.8231 34.366C35.2764 35.9127 33.4741 37.1313 31.4673 37.9772C29.4407 38.833 27.2938 39.2717 25.0776 39.2948C22.863 39.2717 20.7144 38.833 18.6895 37.9772C16.6811 37.1264 14.8788 35.9127 13.3321 34.366C11.7837 32.8193 10.5667 31.0137 9.71918 29.0053C9.46854 28.4166 9.25583 27.8131 9.07279 27.1996C8.87162 26.4642 8.39342 24.5003 8.39342 22.4424C8.39342 19.8354 9.07279 17.6852 9.07279 17.6852C9.25418 17.0734 9.46689 16.4715 9.71918 15.8779C10.5684 13.8695 11.7853 12.0688 13.3337 10.5204C14.8804 8.9737 16.6827 7.75677 18.6912 6.90756C20.7177 6.05175 22.8647 5.61313 25.0792 5.59169C27.2938 5.61313 29.4424 6.05175 31.4689 6.90756C33.4757 7.75677 35.2797 8.9737 36.8248 10.5204C38.3731 12.0688 39.5917 13.8711 40.4376 15.8779C40.6883 16.4699 40.901 17.0734 41.084 17.6852C41.084 17.6852 41.7634 19.8354 41.7634 22.4424C41.7617 24.5003 41.2835 26.4642 41.0824 27.1996Z" fill="black"/>
</svg>
