<svg width="72" height="29" viewBox="0 0 72 29" fill="none" xmlns="http://www.w3.org/2000/svg">
<path d="M8.70161 28.4328C6.05339 28.4328 3.96337 27.6539 2.43155 26.0961C0.899739 24.5124 0.133832 22.3964 0.133832 19.7482C0.133832 15.5682 1.87335 11.7776 5.35239 8.37642C4.02828 7.23405 3.36622 5.98783 3.36622 4.63775C3.36622 2.19724 4.82015 0.976977 7.728 0.976977C8.48092 0.976977 9.20789 1.09381 9.90889 1.32748C10.6359 1.53518 11.3369 1.85972 12.0119 2.30109L12.0508 2.34003C12.1028 2.36599 12.1157 2.40494 12.0898 2.45687C12.0898 2.48283 12.0898 2.52177 12.0898 2.5737C12.0898 2.65159 12.0638 2.69053 12.0119 2.69053C11.9859 2.69053 11.908 2.65159 11.7782 2.5737C10.6099 1.8727 9.42857 1.5222 8.23428 1.5222C7.09191 1.5222 6.14426 1.79481 5.39133 2.34003C4.53455 2.91122 4.10616 3.76799 4.10616 4.91036C4.10616 6.00081 4.65139 7.05231 5.74183 8.06487C9.11702 4.92335 13.362 3.35259 18.4767 3.35259C20.1902 3.35259 21.6701 3.59924 22.9163 4.09253C24.7078 4.74161 25.6035 5.78012 25.6035 7.20809C25.6035 8.29853 24.8895 9.24618 23.4616 10.051C22.9683 10.3626 22.423 10.6352 21.8259 10.8689C21.2287 11.0766 20.5926 11.2453 19.9176 11.3751C18.7493 11.6088 17.4901 11.7256 16.14 11.7256C12.5831 11.7256 9.53242 10.9857 6.98805 9.50581C4.05424 12.8031 2.58733 16.373 2.58733 20.2155C2.58733 22.3185 3.06765 24.084 4.02828 25.512C5.11872 27.1736 6.6765 28.0044 8.70161 28.0044C12.5701 28.0044 15.7376 26.1481 18.2041 22.4354C19.0349 21.1632 19.4503 20.0078 19.4503 18.9693C19.4503 18.0606 19.1387 17.3207 18.5156 16.7495C17.9185 16.1523 17.1655 15.8538 16.2568 15.8538C15.3741 15.8538 14.5563 16.1134 13.8033 16.6326C13.0244 17.1259 12.4662 17.801 12.1287 18.6578C12.0508 18.8655 11.96 18.9693 11.8561 18.9693C11.7523 18.9693 11.7003 18.9044 11.7003 18.7746C11.7003 18.7486 11.7003 18.7227 11.7003 18.6967C11.7263 18.6448 11.7393 18.6058 11.7393 18.5799C12.0768 17.6192 12.6999 16.8663 13.6086 16.3211C14.4654 15.7759 15.413 15.5033 16.4516 15.5033C17.568 15.5033 18.5026 15.8408 19.2556 16.5158C19.9566 17.2168 20.3071 18.1125 20.3071 19.203C20.3071 20.4492 19.9306 21.6435 19.1777 22.7859C18.1391 24.4475 16.6203 25.8106 14.6212 26.875C12.6999 27.9136 10.7267 28.4328 8.70161 28.4328ZM15.2053 11.2194C16.166 11.2194 17.1136 11.1415 18.0483 10.9857C18.9829 10.8299 19.9176 10.6222 20.8523 10.3626C23.4486 9.53177 24.7467 8.3894 24.7467 6.93548C24.7467 4.85844 22.7606 3.81992 18.7882 3.81992C14.5563 3.81992 10.7267 5.61136 7.29961 9.19425C9.63628 10.5443 12.2715 11.2194 15.2053 11.2194ZM32.3269 26.6803C30.9768 26.6803 30.3018 25.7456 30.3018 23.8763C30.3018 23.1493 30.4186 22.3185 30.6523 21.3839C28.8349 24.8889 27.0304 26.6414 25.239 26.6414C24.3822 26.6414 23.7331 26.213 23.2918 25.3562C22.9283 24.7071 22.7466 23.8893 22.7466 22.9027C22.7466 22.0978 22.8634 21.2541 23.0971 20.3713C23.5384 18.8395 24.4731 17.3986 25.9011 16.0485C27.4848 14.5946 28.9906 13.8676 30.4186 13.8676C31.7168 13.8676 32.3658 14.6465 32.3658 16.2043C32.3658 16.8793 32.223 17.6712 31.9374 18.5799L34.3131 13.9065H34.4299C34.5078 14.0363 34.6765 14.1013 34.9362 14.1013C35.4554 14.1013 36.1175 13.7897 36.9223 13.1666L37.0002 13.2445L33.6899 19.7093C32.3658 22.2796 31.7038 24.2268 31.7038 25.5509C31.7038 26.0702 31.9374 26.3298 32.4048 26.3298C32.7163 26.3298 33.0928 26.213 33.5342 25.9793C33.9755 25.7456 34.4429 25.3562 34.9362 24.811C35.5593 24.084 36.0915 23.396 36.5329 22.7469C37.0002 22.0719 37.5325 21.1632 38.1296 20.0208C38.2075 19.891 38.2854 19.8261 38.3633 19.8261C38.5191 19.8261 38.5191 19.9559 38.3633 20.2155C37.8959 21.0983 37.3897 21.981 36.8444 22.8638C36.3252 23.7205 35.6891 24.5254 34.9362 25.2783C34.0015 26.213 33.1317 26.6803 32.3269 26.6803ZM25.3948 26.3688C26.8487 26.3688 28.718 24.3177 31.0028 20.2155C31.7297 18.9174 32.0932 17.6063 32.0932 16.2821C32.0932 14.8801 31.6389 14.1791 30.7302 14.1791C29.7436 14.1791 28.6272 14.997 27.3809 16.6326C26.8876 17.3077 26.4593 17.9697 26.0958 18.6188C25.7583 19.2679 25.4856 19.891 25.2779 20.4881C24.7327 22.0459 24.4601 23.4479 24.4601 24.6941C24.4601 25.8106 24.7717 26.3688 25.3948 26.3688ZM40.6972 26.875C38.5942 26.875 37.5427 25.486 37.5427 22.708C37.5427 21.0463 37.9062 19.1121 38.6332 16.9053C38.9707 15.8927 39.3342 14.9191 39.7236 13.9844C40.113 13.0498 40.5284 12.18 40.9698 11.3751C41.515 10.3886 42.0862 9.45388 42.6834 8.57114C43.2805 7.66244 43.9166 6.80566 44.5917 6.00081C46.5389 3.58625 48.2005 2.37898 49.5765 2.37898C50.1477 2.37898 50.4333 2.65159 50.4333 3.19681C50.4333 3.92377 50.1347 5.04018 49.5376 6.54603C47.5384 11.505 44.2931 16.0225 39.8015 20.0987C39.3601 21.7344 39.1394 23.0455 39.1394 24.0321C39.1394 25.7197 39.6717 26.5635 40.7362 26.5635C41.0996 26.5635 41.4501 26.4986 41.7877 26.3688C42.1252 26.213 42.4237 26.0442 42.6834 25.8625C43.3844 25.3173 43.9815 24.6812 44.4748 23.9542C44.9681 23.2272 45.3965 22.5003 45.76 21.7733C46.1235 21.0463 46.448 20.4362 46.7336 19.9429C46.8115 19.8131 46.8894 19.7742 46.9673 19.8261C47.0452 19.8521 47.0581 19.9299 47.0062 20.0598C46.4869 21.1502 45.9158 22.2666 45.2927 23.409C44.6695 24.5513 43.8777 25.4601 42.917 26.1351C42.216 26.6284 41.4761 26.875 40.6972 26.875ZM39.9183 19.7093C40.4376 19.2679 40.9828 18.7227 41.554 18.0736C42.1252 17.4245 42.7353 16.6846 43.3844 15.8538C44.0334 15.0229 44.6955 14.1013 45.3705 13.0887C46.0456 12.0761 46.7206 10.9857 47.3957 9.81737C49.2131 6.72777 50.1218 4.57285 50.1218 3.35259C50.1218 2.91122 49.979 2.69053 49.6934 2.69053C48.7327 2.69053 47.0192 4.75459 44.5527 8.8827C43.9036 10.051 43.3195 11.1804 42.8002 12.2709C42.1771 13.6469 41.6189 14.958 41.1256 16.2043C40.6583 17.4245 40.2558 18.5928 39.9183 19.7093ZM49.2933 26.9529C48.0211 26.9529 47.1384 26.6024 46.6451 25.9014C46.1518 25.1745 45.9051 24.1619 45.9051 22.8638C45.9051 20.9944 46.684 19.0472 48.2418 17.0221C49.9034 14.8931 51.6299 13.8286 53.4214 13.8286C54.7455 13.8286 55.4076 14.283 55.4076 15.1917C55.4076 16.3081 54.7974 17.4764 53.5772 18.6967C51.8377 20.4622 50.0073 21.3449 48.086 21.3449C47.7744 22.1498 47.6187 22.9546 47.6187 23.7595C47.6187 24.6422 47.7874 25.3302 48.1249 25.8235C48.4625 26.3168 48.9558 26.5635 49.6048 26.5635C50.2799 26.5635 50.9809 26.3817 51.7078 26.0183C52.4348 25.6288 53.0579 25.1745 53.5772 24.6552C54.0185 24.2138 54.5118 23.6167 55.0571 22.8638C55.6282 22.0849 56.1994 21.1372 56.7706 20.0208C56.8485 19.891 56.9264 19.8261 57.0043 19.8261C57.1601 19.8261 57.1601 19.9559 57.0043 20.2155C56.5629 21.0983 56.0826 21.9421 55.5633 22.7469C55.07 23.5518 54.408 24.3307 53.5772 25.0836C53.0839 25.5769 52.4608 26.0183 51.7078 26.4077C50.9549 26.7712 50.1501 26.9529 49.2933 26.9529ZM48.1249 21.0723C49.5529 21.0723 51.1496 20.3064 52.9151 18.7746V18.7356C53.4084 18.3202 53.8757 17.7491 54.3171 17.0221C54.8364 16.2172 55.096 15.5292 55.096 14.958C55.096 14.5426 54.7844 14.3349 54.1613 14.3349C53.1747 14.3349 51.9804 15.2177 50.5784 16.9831C49.9294 17.762 49.4101 18.489 49.0207 19.164C48.6312 19.8391 48.3327 20.4752 48.1249 21.0723ZM59.0601 26.8361C57.1648 26.8361 56.2172 25.5379 56.2172 22.9416C56.2172 22.5522 56.2431 22.1628 56.2951 21.7733C56.347 21.3839 56.4249 20.9944 56.5287 20.605C57.1778 18.1385 58.0346 15.8278 59.0991 13.6729C59.5145 12.8161 59.9558 11.9853 60.4232 11.1804C60.9165 10.3756 61.4228 9.60966 61.942 8.8827C62.4872 8.12977 63.0584 7.40281 63.6556 6.70181C64.2527 6.00081 64.8758 5.35174 65.5249 4.75459C67.3683 3.04103 68.9001 2.18425 70.1203 2.18425C71.2108 2.18425 71.756 2.70351 71.756 3.74203C71.756 4.57285 71.3795 5.63733 70.6266 6.93548C70.0035 8.02592 69.3285 8.93462 68.6015 9.66159C66.3947 11.9463 63.6166 14.0883 60.2674 16.0874C58.6058 20.0338 57.775 22.8638 57.775 24.5773C57.775 25.2523 57.8918 25.7456 58.1255 26.0572C58.3851 26.3428 58.7486 26.4856 59.2159 26.4856C59.839 26.4856 60.4102 26.2649 60.9295 25.8235C61.4747 25.3822 61.968 24.8369 62.4093 24.1879C62.8507 23.5388 63.2402 22.8767 63.5777 22.2017C63.9152 21.5267 64.1748 20.9425 64.3566 20.4492C64.3046 20.3194 64.2397 20.0727 64.1618 19.7093C64.1099 19.3198 64.084 18.9304 64.084 18.5409C64.084 18.0996 64.1359 17.7231 64.2397 17.4115C64.3436 17.074 64.5253 16.9053 64.785 16.9053C65.2004 16.9053 65.4081 17.2168 65.4081 17.8399C65.4081 18.1774 65.3561 18.5669 65.2523 19.0083C65.1484 19.4496 64.9797 19.917 64.746 20.4103C64.7979 21.0074 64.9148 21.5137 65.0965 21.9291C65.2783 22.3445 65.5898 22.5522 66.0312 22.5522C66.4725 22.5522 66.888 22.3315 67.2774 21.8901C67.6668 21.4228 68.0563 20.7997 68.4457 20.0208C68.4457 19.9948 68.4717 19.9819 68.5236 19.9819C68.5755 19.9819 68.6145 20.0208 68.6405 20.0987C68.6924 20.1506 68.6924 20.2155 68.6405 20.2934C68.277 21.0983 67.8875 21.7214 67.4721 22.1628C67.0567 22.6041 66.5504 22.8248 65.9533 22.8248C65.0965 22.8248 64.6032 22.1887 64.4734 20.9165C62.9675 24.8629 61.1631 26.8361 59.0601 26.8361ZM60.54 15.5811C63.8892 13.3224 66.4596 11.2973 68.251 9.50581C70.3021 7.40281 71.3276 5.45559 71.3276 3.66414C71.3276 2.83333 70.9252 2.41792 70.1203 2.41792C68.7183 2.41792 66.862 4.24831 64.5513 7.90909C63.8243 9.07742 63.1233 10.3107 62.4483 11.6088C61.7992 12.881 61.1631 14.2051 60.54 15.5811Z" fill="#FCC028"/>
</svg>
