<svg width="58" height="23" viewBox="0 0 58 23" fill="none" xmlns="http://www.w3.org/2000/svg">
<path d="M7.49293 22.8357C5.37435 22.8357 3.70234 22.2126 2.47688 20.9664C1.25143 19.6994 0.638706 18.0066 0.638706 15.888C0.638706 12.544 2.03032 9.51155 4.81355 6.79063C3.75426 5.87673 3.22462 4.87975 3.22462 3.79969C3.22462 1.84728 4.38776 0.871072 6.71404 0.871072C7.31638 0.871072 7.89795 0.964539 8.45875 1.15147C9.04032 1.31763 9.60112 1.57726 10.1412 1.93036L10.1723 1.96152C10.2138 1.98229 10.2242 2.01344 10.2035 2.05498C10.2035 2.07575 10.2035 2.10691 10.2035 2.14845C10.2035 2.21076 10.1827 2.24192 10.1412 2.24192C10.1204 2.24192 10.0581 2.21076 9.95422 2.14845C9.01955 1.58765 8.0745 1.30725 7.11906 1.30725C6.20517 1.30725 5.44705 1.52534 4.84471 1.96152C4.15928 2.41846 3.81657 3.10389 3.81657 4.01778C3.81657 4.89014 4.25275 5.73134 5.12511 6.54138C7.82525 4.02817 11.2212 2.77156 15.313 2.77156C16.6838 2.77156 17.8677 2.96888 18.8647 3.36352C20.2979 3.88277 21.0144 4.71359 21.0144 5.85596C21.0144 6.72832 20.4433 7.48643 19.3009 8.13032C18.9062 8.37956 18.4701 8.59765 17.9924 8.78458C17.5146 8.95075 17.0058 9.08575 16.4657 9.1896C15.5311 9.37654 14.5237 9.47 13.4436 9.47C10.5981 9.47 8.15758 8.87805 6.12208 7.69414C3.77503 10.332 2.60151 13.1879 2.60151 16.2619C2.60151 17.9443 2.98576 19.3567 3.75426 20.4991C4.62662 21.8284 5.87284 22.493 7.49293 22.493C10.5877 22.493 13.1217 21.0079 15.0949 18.0378C15.7595 17.02 16.0919 16.0958 16.0919 15.2649C16.0919 14.538 15.8426 13.946 15.3441 13.4891C14.8664 13.0114 14.2641 12.7725 13.5371 12.7725C12.8309 12.7725 12.1766 12.9802 11.5743 13.3956C10.9512 13.7902 10.5046 14.3303 10.2346 15.0157C10.1723 15.1819 10.0996 15.2649 10.0165 15.2649C9.93345 15.2649 9.89191 15.213 9.89191 15.1092C9.89191 15.0884 9.89191 15.0676 9.89191 15.0468C9.91268 15.0053 9.92306 14.9742 9.92306 14.9534C10.1931 14.1849 10.6916 13.5825 11.4185 13.1464C12.104 12.7102 12.8621 12.4921 13.6929 12.4921C14.586 12.4921 15.3337 12.7621 15.9361 13.3021C16.4969 13.8629 16.7773 14.5795 16.7773 15.4519C16.7773 16.4488 16.4761 17.4043 15.8738 18.3182C15.043 19.6475 13.8279 20.7379 12.2286 21.5895C10.6916 22.4203 9.11302 22.8357 7.49293 22.8357ZM12.6959 9.06498C13.4644 9.06498 14.2225 9.00267 14.9703 8.87805C15.718 8.75343 16.4657 8.58726 17.2135 8.37956C19.2905 7.71491 20.329 6.80101 20.329 5.63787C20.329 3.97624 18.7401 3.14543 15.5622 3.14543C12.1766 3.14543 9.11302 4.57858 6.37133 7.44489C8.24066 8.52495 10.3489 9.06498 12.6959 9.06498ZM26.3932 21.4337C25.3131 21.4337 24.7731 20.686 24.7731 19.1905C24.7731 18.609 24.8665 17.9443 25.0535 17.1966C23.5995 20.0006 22.156 21.4026 20.7228 21.4026C20.0374 21.4026 19.5182 21.0599 19.1651 20.3744C18.8743 19.8552 18.7289 19.2009 18.7289 18.4116C18.7289 17.7678 18.8224 17.0927 19.0093 16.3865C19.3624 15.1611 20.1101 14.0083 21.2525 12.9283C22.5195 11.7651 23.7242 11.1836 24.8665 11.1836C25.905 11.1836 26.4243 11.8067 26.4243 13.0529C26.4243 13.5929 26.3101 14.2264 26.0816 14.9534L27.9821 11.2147H28.0756C28.1379 11.3186 28.2729 11.3705 28.4806 11.3705C28.896 11.3705 29.4256 11.1212 30.0695 10.6228L30.1318 10.6851L27.4836 15.8569C26.4243 17.9132 25.8947 19.4709 25.8947 20.5302C25.8947 20.9456 26.0816 21.1533 26.4555 21.1533C26.7047 21.1533 27.0059 21.0599 27.359 20.8729C27.7121 20.686 28.0859 20.3744 28.4806 19.9383C28.9791 19.3567 29.4049 18.8063 29.758 18.287C30.1318 17.747 30.5576 17.02 31.0353 16.1061C31.0976 16.0023 31.16 15.9504 31.2223 15.9504C31.3469 15.9504 31.3469 16.0542 31.2223 16.2619C30.8484 16.9681 30.4434 17.6743 30.0072 18.3805C29.5918 19.0659 29.0829 19.7098 28.4806 20.3121C27.7328 21.0599 27.037 21.4337 26.3932 21.4337ZM20.8475 21.1845C22.0106 21.1845 23.5061 19.5436 25.3339 16.2619C25.9154 15.2234 26.2062 14.1745 26.2062 13.1152C26.2062 11.9936 25.8427 11.4328 25.1158 11.4328C24.3265 11.4328 23.4334 12.0871 22.4364 13.3956C22.0418 13.9356 21.699 14.4653 21.4083 14.9845C21.1382 15.5038 20.9202 16.0023 20.754 16.48C20.3178 17.7262 20.0997 18.8478 20.0997 19.8448C20.0997 20.7379 20.349 21.1845 20.8475 21.1845ZM33.0894 21.5895C31.407 21.5895 30.5658 20.4783 30.5658 18.2559C30.5658 16.9266 30.8566 15.3792 31.4382 13.6137C31.7082 12.8036 31.999 12.0248 32.3105 11.277C32.6221 10.5293 32.9544 9.83349 33.3075 9.1896C33.7437 8.40033 34.2006 7.6526 34.6783 6.9464C35.1561 6.21944 35.6649 5.53402 36.205 4.89014C37.7627 2.95849 39.092 1.99267 40.1929 1.99267C40.6498 1.99267 40.8783 2.21076 40.8783 2.64694C40.8783 3.22851 40.6394 4.12163 40.1617 5.32632C38.5624 9.29346 35.9661 12.9075 32.3728 16.1684C32.0197 17.477 31.8432 18.5259 31.8432 19.3152C31.8432 20.6652 32.269 21.3403 33.1206 21.3403C33.4113 21.3403 33.6917 21.2883 33.9618 21.1845C34.2318 21.0599 34.4706 20.9249 34.6783 20.7795C35.2391 20.3433 35.7169 19.8344 36.1115 19.2528C36.5061 18.6713 36.8488 18.0897 37.1396 17.5081C37.4304 16.9266 37.69 16.4385 37.9185 16.0438C37.9808 15.94 38.0431 15.9088 38.1055 15.9504C38.1678 15.9711 38.1781 16.0334 38.1366 16.1373C37.7212 17.0096 37.2643 17.9028 36.7658 18.8167C36.2673 19.7306 35.6338 20.4575 34.8653 20.9976C34.3045 21.3922 33.7125 21.5895 33.0894 21.5895ZM32.4663 15.8569C32.8817 15.5038 33.3179 15.0676 33.7748 14.5484C34.2318 14.0291 34.7199 13.4371 35.2391 12.7725C35.7584 12.1078 36.288 11.3705 36.8281 10.5604C37.3681 9.7504 37.9081 8.87805 38.4482 7.94338C39.9021 5.47171 40.6291 3.74777 40.6291 2.77156C40.6291 2.41846 40.5148 2.24192 40.2863 2.24192C39.5178 2.24192 38.147 3.89316 36.1738 7.19565C35.6545 8.13032 35.1872 9.03383 34.7718 9.90618C34.2733 11.007 33.8268 12.0559 33.4321 13.0529C33.0583 14.0291 32.7363 14.9638 32.4663 15.8569ZM39.9663 21.6518C38.9485 21.6518 38.2423 21.3714 37.8477 20.8106C37.453 20.2291 37.2557 19.419 37.2557 18.3805C37.2557 16.885 37.8788 15.3272 39.1251 13.7072C40.4544 12.004 41.8356 11.1524 43.2688 11.1524C44.328 11.1524 44.8577 11.5159 44.8577 12.2428C44.8577 13.136 44.3696 14.0706 43.3934 15.0468C42.0018 16.4592 40.5374 17.1654 39.0004 17.1654C38.7512 17.8093 38.6266 18.4532 38.6266 19.0971C38.6266 19.8033 38.7616 20.3537 39.0316 20.7483C39.3016 21.143 39.6962 21.3403 40.2155 21.3403C40.7555 21.3403 41.3163 21.1949 41.8979 20.9041C42.4795 20.5925 42.978 20.2291 43.3934 19.8136C43.7465 19.4606 44.1411 18.9828 44.5773 18.3805C45.0342 17.7574 45.4912 16.9993 45.9481 16.1061C46.0104 16.0023 46.0728 15.9504 46.1351 15.9504C46.2597 15.9504 46.2597 16.0542 46.1351 16.2619C45.782 16.9681 45.3977 17.6431 44.9823 18.287C44.5877 18.9309 44.058 19.554 43.3934 20.1564C42.9987 20.551 42.5002 20.9041 41.8979 21.2156C41.2956 21.5064 40.6517 21.6518 39.9663 21.6518ZM39.0316 16.9473C40.174 16.9473 41.4513 16.3346 42.8637 15.1092V15.078C43.2584 14.7457 43.6322 14.2887 43.9853 13.7072C44.4007 13.0633 44.6084 12.5129 44.6084 12.0559C44.6084 11.7236 44.3592 11.5574 43.8607 11.5574C43.0714 11.5574 42.116 12.2636 40.9944 13.676C40.4751 14.2991 40.0597 14.8807 39.7482 15.4207C39.4366 15.9607 39.1978 16.4696 39.0316 16.9473ZM47.7797 21.5584C46.2635 21.5584 45.5054 20.5198 45.5054 18.4428C45.5054 18.1312 45.5262 17.8197 45.5677 17.5081C45.6092 17.1966 45.6715 16.885 45.7546 16.5735C46.2739 14.6003 46.9593 12.7517 47.8109 11.0278C48.1432 10.3424 48.4963 9.67771 48.8702 9.03383C49.2648 8.38995 49.6698 7.77722 50.0852 7.19565C50.5214 6.59331 50.9784 6.01174 51.4561 5.45094C51.9338 4.89014 52.4323 4.37088 52.9516 3.89316C54.4263 2.52232 55.6517 1.83689 56.6279 1.83689C57.5003 1.83689 57.9364 2.2523 57.9364 3.08312C57.9364 3.74777 57.6353 4.59935 57.0329 5.63787C56.5344 6.51023 55.9944 7.23719 55.4128 7.81876C53.6474 9.64655 51.4249 11.3601 48.7456 12.9594C47.4163 16.1165 46.7516 18.3805 46.7516 19.7513C46.7516 20.2914 46.8451 20.686 47.032 20.9352C47.2397 21.1637 47.5305 21.278 47.9044 21.278C48.4028 21.278 48.8598 21.1014 49.2752 20.7483C49.7114 20.3952 50.106 19.959 50.4591 19.4398C50.8122 18.9205 51.1238 18.3909 51.3938 17.8508C51.6638 17.3108 51.8715 16.8435 52.0169 16.4488C51.9754 16.345 51.9234 16.1477 51.8611 15.8569C51.8196 15.5453 51.7988 15.2338 51.7988 14.9222C51.7988 14.5691 51.8403 14.268 51.9234 14.0187C52.0065 13.7487 52.1519 13.6137 52.3596 13.6137C52.6919 13.6137 52.8581 13.8629 52.8581 14.3614C52.8581 14.6314 52.8166 14.943 52.7335 15.2961C52.6504 15.6492 52.5154 16.0231 52.3284 16.4177C52.37 16.8954 52.4635 17.3004 52.6088 17.6328C52.7542 17.9651 53.0035 18.1312 53.3566 18.1312C53.7097 18.1312 54.042 17.9547 54.3536 17.6016C54.6651 17.2277 54.9767 16.7292 55.2882 16.1061C55.2882 16.0854 55.309 16.075 55.3505 16.075C55.3921 16.075 55.4232 16.1061 55.444 16.1684C55.4855 16.21 55.4855 16.2619 55.444 16.3242C55.1532 16.9681 54.8417 17.4666 54.5093 17.8197C54.177 18.1728 53.772 18.3493 53.2943 18.3493C52.6088 18.3493 52.2142 17.8405 52.1104 16.8227C50.9057 19.9798 49.4621 21.5584 47.7797 21.5584ZM48.9636 12.5544C51.643 10.7474 53.6993 9.12729 55.1324 7.69414C56.7733 6.01174 57.5937 4.45396 57.5937 3.02081C57.5937 2.35615 57.2718 2.02383 56.6279 2.02383C55.5063 2.02383 54.0212 3.48814 52.1727 6.41676C51.5911 7.35143 51.0303 8.33802 50.4903 9.37654C49.971 10.3943 49.4621 11.4536 48.9636 12.5544Z" fill="black"/>
</svg>
