<svg width="49" height="54" viewBox="0 0 49 54" fill="none" xmlns="http://www.w3.org/2000/svg">
<path d="M42.0322 37.3262L37.0791 44.4424L33.5839 41.5738C33.2068 41.2623 32.6483 41.3189 32.3385 41.696C32.0279 42.0739 32.0828 42.6324 32.4616 42.9413L36.6977 46.4189C36.8561 46.5499 37.0552 46.6198 37.2588 46.6198C37.2986 46.6198 37.3394 46.6171 37.3801 46.6109C37.6244 46.5773 37.8439 46.4428 37.9855 46.2401L43.4855 38.337C43.7643 37.936 43.6661 37.3846 43.2642 37.1049C42.8624 36.8244 42.3119 36.9244 42.0322 37.3262Z" fill="#FCC028"/>
<path d="M38.3338 30.7331V6.79019C38.3338 6.30073 37.9372 5.90509 37.4487 5.90509H30.3678V4.13489C30.3678 3.64543 29.9713 3.24979 29.4827 3.24979H24.1721V1.47958C24.1721 0.990123 23.7756 0.594482 23.287 0.594482H15.3211C14.8326 0.594482 14.436 0.990123 14.436 1.47958V3.24979H9.12542C8.63685 3.24979 8.24032 3.64543 8.24032 4.13489V5.90509H1.15952C0.670939 5.90509 0.274414 6.30073 0.274414 6.79019V51.0452C0.274414 51.5347 0.670939 51.9303 1.15952 51.9303H31.345C33.117 53.0456 35.2058 53.7005 37.4487 53.7005C43.7931 53.7005 48.955 48.5386 48.955 42.1942C48.955 36.1481 44.2648 31.1871 38.3338 30.7331ZM16.2062 2.36468H22.4019V4.13489V5.90509H16.2062V4.13489V2.36468ZM10.0105 5.01999H14.436V6.79019C14.436 7.27965 14.8326 7.67529 15.3211 7.67529H23.287C23.7756 7.67529 24.1721 7.27965 24.1721 6.79019V5.01999H28.5976V6.79019V8.56039H10.0105V6.79019V5.01999ZM2.04462 50.1601V7.67529H8.24032V9.44549C8.24032 9.93495 8.63685 10.3306 9.12542 10.3306H29.4827C29.9713 10.3306 30.3678 9.93495 30.3678 9.44549V7.67529H36.5636V30.7216C36.5131 30.7251 36.4644 30.7357 36.414 30.7401C36.2414 30.7561 36.0714 30.7809 35.9015 30.8048C35.6988 30.8322 35.4952 30.8596 35.2961 30.8968C35.1253 30.9296 34.9589 30.9703 34.7907 31.0101C34.5969 31.0561 34.403 31.103 34.2136 31.1588C34.0481 31.2075 33.8861 31.2632 33.7242 31.319C33.5383 31.3827 33.3542 31.4482 33.1727 31.5217C33.0143 31.5854 32.8585 31.6544 32.7027 31.7253C32.5257 31.8058 32.3514 31.889 32.1797 31.9775C32.0283 32.0554 31.8796 32.1377 31.7327 32.2227C31.5663 32.3183 31.4025 32.4174 31.2414 32.5218C31.0981 32.6139 30.9573 32.7086 30.8192 32.8069C30.6626 32.9175 30.5104 33.0326 30.3599 33.1512C30.2271 33.2556 30.0961 33.3609 29.9687 33.4707C29.8226 33.5964 29.681 33.7265 29.5421 33.8592C29.4208 33.9743 29.3004 34.0902 29.1836 34.2106C29.049 34.3496 28.9207 34.4939 28.7933 34.6399C28.6835 34.7656 28.5737 34.8904 28.4702 35.0205C28.348 35.1727 28.2339 35.3303 28.1197 35.4887C28.0232 35.6232 27.925 35.756 27.8338 35.895C27.7249 36.0605 27.6258 36.2313 27.5249 36.4021C27.4426 36.5438 27.3576 36.6827 27.2806 36.827C27.1859 37.0067 27.1018 37.1916 27.016 37.3757C26.9487 37.5218 26.877 37.6652 26.8151 37.8148C26.7354 38.0086 26.6672 38.2077 26.5982 38.406C26.546 38.5538 26.4893 38.6999 26.4433 38.8503C26.3787 39.0627 26.3291 39.2805 26.2769 39.4973C26.2424 39.6416 26.2008 39.7823 26.1707 39.9284C26.122 40.1718 26.0902 40.4214 26.0574 40.6701C26.0406 40.7958 26.0158 40.9179 26.0025 41.0445C25.9627 41.4242 25.9423 41.8066 25.9423 42.1942C25.9423 42.5793 25.9627 42.9616 26.0008 43.3396C26.0149 43.4829 26.0432 43.621 26.0627 43.7635C26.0946 43.9963 26.1229 44.2291 26.1689 44.4583C26.1999 44.6132 26.2442 44.7637 26.2813 44.9168C26.3327 45.1283 26.3805 45.3408 26.4442 45.5488C26.4876 45.6895 26.5416 45.8258 26.5902 45.9648C26.6646 46.1798 26.7381 46.3958 26.8257 46.6056C26.8744 46.7233 26.9319 46.8357 26.985 46.9508C27.0868 47.1756 27.1903 47.3995 27.3063 47.6172C27.3576 47.712 27.4151 47.8031 27.4691 47.8961C27.6001 48.1253 27.7329 48.3519 27.8798 48.5714C27.9338 48.6519 27.9931 48.7281 28.0489 48.8077C28.2047 49.029 28.364 49.2485 28.5366 49.4591C28.6003 49.537 28.6693 49.6096 28.7348 49.6857C28.872 49.845 29.003 50.0079 29.1491 50.1601H2.04462ZM37.4487 51.9303C35.4501 51.9303 33.5905 51.3232 32.0433 50.2867C31.7415 50.0849 31.4565 49.8654 31.183 49.6353C31.0874 49.5547 30.9972 49.4671 30.9051 49.3821C30.7307 49.2237 30.5617 49.0608 30.4006 48.8918C30.297 48.7829 30.197 48.6723 30.0988 48.5599C29.9536 48.3935 29.8173 48.22 29.6846 48.0439C29.5996 47.9315 29.512 47.8217 29.4314 47.7058C29.2358 47.4216 29.0517 47.1296 28.8871 46.8269C28.849 46.756 28.8189 46.6808 28.7826 46.61C28.6534 46.3569 28.533 46.1002 28.4259 45.8364C28.3799 45.7214 28.3401 45.6036 28.2976 45.4859C28.2144 45.254 28.1383 45.0195 28.0719 44.7814C28.0383 44.6584 28.0055 44.5362 27.9763 44.4114C27.917 44.1592 27.871 43.9034 27.832 43.6458C27.8152 43.5352 27.794 43.4263 27.7816 43.3139C27.74 42.9448 27.7125 42.5713 27.7125 42.1942C27.7125 36.8261 32.0805 32.4581 37.4487 32.4581C42.8168 32.4581 47.1848 36.8261 47.1848 42.1942C47.1848 47.5624 42.8168 51.9303 37.4487 51.9303Z" fill="black"/>
<path d="M6.47055 16.5263H17.9769C18.4654 16.5263 18.862 16.1307 18.862 15.6412C18.862 15.1517 18.4654 14.7561 17.9769 14.7561H6.47055C5.98197 14.7561 5.58545 15.1517 5.58545 15.6412C5.58545 16.1307 5.98197 16.5263 6.47055 16.5263Z" fill="black"/>
<path d="M17.9769 41.309H6.47055C5.98197 41.309 5.58545 41.7047 5.58545 42.1941C5.58545 42.6836 5.98197 43.0792 6.47055 43.0792H17.9769C18.4654 43.0792 18.862 42.6836 18.862 42.1941C18.862 41.7047 18.4654 41.309 17.9769 41.309Z" fill="black"/>
<path d="M6.47055 21.8369H32.1385C32.6271 21.8369 33.0236 21.4412 33.0236 20.9518C33.0236 20.4623 32.6271 20.0667 32.1385 20.0667H6.47055C5.98197 20.0667 5.58545 20.4623 5.58545 20.9518C5.58545 21.4412 5.98197 21.8369 6.47055 21.8369Z" fill="black"/>
<path d="M6.47055 32.4581H27.713C28.2016 32.4581 28.5981 32.0625 28.5981 31.573C28.5981 31.0836 28.2016 30.6879 27.713 30.6879H6.47055C5.98197 30.6879 5.58545 31.0836 5.58545 31.573C5.58545 32.0625 5.98197 32.4581 6.47055 32.4581Z" fill="black"/>
<path d="M23.2875 35.9985H6.47055C5.98197 35.9985 5.58545 36.3941 5.58545 36.8836C5.58545 37.373 5.98197 37.7687 6.47055 37.7687H23.2875C23.776 37.7687 24.1726 37.373 24.1726 36.8836C24.1726 36.3941 23.776 35.9985 23.2875 35.9985Z" fill="black"/>
<path d="M6.47055 27.1475H18.862C19.3505 27.1475 19.7471 26.7519 19.7471 26.2624C19.7471 25.773 19.3505 25.3773 18.862 25.3773H6.47055C5.98197 25.3773 5.58545 25.773 5.58545 26.2624C5.58545 26.7519 5.98197 27.1475 6.47055 27.1475Z" fill="black"/>
<path d="M32.1384 25.3773H25.9427C25.4541 25.3773 25.0576 25.773 25.0576 26.2624C25.0576 26.7519 25.4541 27.1475 25.9427 27.1475H32.1384C32.627 27.1475 33.0235 26.7519 33.0235 26.2624C33.0235 25.773 32.627 25.3773 32.1384 25.3773Z" fill="black"/>
</svg>
