<svg width="35" height="27" viewBox="0 0 35 27" fill="none" xmlns="http://www.w3.org/2000/svg">
<path d="M0.466797 0.679199V26.8918H34.5432V0.679199H0.466797ZM3.08806 3.30046H31.9219V24.2705H27.4579C27.3557 24.091 27.4016 23.8459 27.2521 23.6965C26.758 23.2011 26.0542 22.9599 25.3688 22.9599C24.6833 22.9599 23.9808 23.2011 23.4841 23.6978C23.336 23.8459 23.3819 24.091 23.2796 24.2705H11.7304C11.6281 24.091 11.674 23.8459 11.5259 23.6965C11.0279 23.2011 10.3267 22.9599 9.64121 22.9599C8.95575 22.9599 8.25325 23.2011 7.75652 23.6978C7.60842 23.8459 7.65429 24.091 7.55206 24.2705H3.08806V3.30046ZM12.2625 5.92172C9.37908 5.92172 7.01995 8.28086 7.01995 11.1642C7.01995 12.623 7.64512 13.9388 8.61761 14.8917C7.72589 15.4941 6.99483 16.3052 6.48798 17.2545C5.98112 18.2038 5.71382 19.2625 5.70932 20.3387H8.33058C8.33058 19.2959 8.74483 18.2958 9.4822 17.5584C10.2196 16.821 11.2197 16.4068 12.2625 16.4068C13.3053 16.4068 14.3054 16.821 15.0427 17.5584C15.7801 18.2958 16.1944 19.2959 16.1944 20.3387H18.8156C18.8111 19.2625 18.5438 18.2038 18.037 17.2545C17.5301 16.3052 16.799 15.4941 15.9073 14.8917C16.8798 13.9388 17.505 12.6243 17.505 11.1642C17.505 8.28086 15.1459 5.92172 12.2625 5.92172ZM12.2625 8.54298C13.7264 8.54298 14.8837 9.70027 14.8837 11.1642C14.8837 12.6282 13.7264 13.7855 12.2625 13.7855C10.7985 13.7855 9.64121 12.6282 9.64121 11.1642C9.64121 9.70027 10.7985 8.54298 12.2625 8.54298ZM21.4369 9.85361V12.4749H29.3007V9.85361H21.4369ZM21.4369 15.0961V17.7174H29.3007V15.0961H21.4369Z" fill="#FCC028"/>
</svg>
