<svg width="181" height="37" viewBox="0 0 181 37" fill="none" xmlns="http://www.w3.org/2000/svg">
<path d="M21.3064 7.52837L10.8629 14.1944L21.3064 20.8605L10.8629 27.5265L0.419434 20.8049L10.8629 14.1389L0.419434 7.52837L10.8629 0.862305L21.3064 7.52837ZM10.8074 29.6375L21.2509 22.9714L31.6944 29.6375L21.2509 36.3035L10.8074 29.6375ZM21.3064 20.8049L31.7499 14.1389L21.3064 7.52837L31.6944 0.862305L42.1379 7.52837L31.6944 14.1944L42.1379 20.8605L31.6944 27.5265L21.3064 20.8049Z" fill="#0061FF"/>
<path d="M50.3037 7.5281H58.7474C64.1358 7.5281 68.5798 10.6389 68.5798 17.7494V19.2493C68.5798 26.4153 64.4135 29.6372 58.914 29.6372H50.3037V7.5281ZM55.0255 11.5277V25.582H58.6363C61.6916 25.582 63.7469 23.5822 63.7469 19.1382V17.9716C63.7469 13.5276 61.5805 11.5277 58.4696 11.5277H55.0255ZM71.0796 11.7499H74.857L75.4681 15.9162C76.1903 13.0832 78.0234 11.5833 81.3564 11.5833H82.523V16.3606H80.5787C76.7458 16.3606 75.8014 17.6938 75.8014 21.4713V29.6928H71.1352V11.7499H71.0796ZM83.4674 21.0824V20.5825C83.4674 14.583 87.3004 11.3055 92.5221 11.3055C97.8549 11.3055 101.577 14.583 101.577 20.5825V21.0824C101.577 26.9708 97.966 30.1372 92.5221 30.1372C86.7448 30.0816 83.4674 26.9708 83.4674 21.0824ZM96.7995 21.0269V20.5825C96.7995 17.2494 95.133 15.2496 92.4665 15.2496C89.8557 15.2496 88.1336 17.0828 88.1336 20.5825V21.0269C88.1336 24.2488 89.8001 26.082 92.4665 26.082C95.133 26.0264 96.7995 24.2488 96.7995 21.0269ZM104.021 11.7499H107.91L108.354 15.1385C109.298 12.861 111.298 11.3055 114.242 11.3055C118.797 11.3055 121.797 14.583 121.797 20.638V21.138C121.797 27.0263 118.464 30.1372 114.242 30.1372C111.409 30.1372 109.465 28.8595 108.521 26.8041V35.8589H103.965L104.021 11.7499ZM117.075 21.0269V20.638C117.075 17.0828 115.242 15.3052 112.798 15.3052C110.187 15.3052 108.465 17.305 108.465 20.638V20.9713C108.465 24.1377 110.132 26.1375 112.742 26.1375C115.409 26.082 117.075 24.3599 117.075 21.0269ZM128.685 26.3597L128.297 29.6372H124.297V5.75049H128.852V14.9163C129.852 12.5832 131.852 11.3055 134.685 11.3055C138.962 11.3611 142.129 14.3053 142.129 20.2492V20.8047C142.129 26.7486 139.129 30.1372 134.574 30.1372C131.574 30.0816 129.63 28.6928 128.685 26.3597ZM137.351 20.8047V20.3603C137.351 17.0828 135.574 15.2496 133.074 15.2496C130.519 15.2496 128.741 17.305 128.741 20.4158V20.8047C128.741 24.1377 130.463 26.082 133.018 26.082C135.74 26.082 137.351 24.3599 137.351 20.8047ZM144.129 21.0824V20.5825C144.129 14.583 147.962 11.3055 153.183 11.3055C158.516 11.3055 162.238 14.583 162.238 20.5825V21.0824C162.238 26.9708 158.572 30.1372 153.183 30.1372C147.406 30.0816 144.129 26.9708 144.129 21.0824ZM157.516 21.0269V20.5825C157.516 17.2494 155.85 15.2496 153.183 15.2496C150.572 15.2496 148.85 17.0828 148.85 20.5825V21.0269C148.85 24.2488 150.517 26.082 153.183 26.082C155.85 26.0264 157.516 24.2488 157.516 21.0269ZM168.349 20.3603L162.071 11.7499H167.46L171.071 17.1383L174.737 11.7499H180.07L173.681 20.3047L180.403 29.6372H175.126L171.015 23.6933L167.015 29.6372H161.516L168.349 20.3603Z" fill="black"/>
</svg>
