<svg width="129" height="43" viewBox="0 0 129 43" fill="none" xmlns="http://www.w3.org/2000/svg">
<path d="M16.2234 0.67334H17.3626C21.3179 0.759323 25.2086 2.35001 28.003 5.16596C26.9712 6.21925 25.918 7.22955 24.9076 8.28285C23.3385 6.86413 21.4468 5.76784 19.3832 5.38092C16.3308 4.73604 13.042 5.31643 10.484 7.05759C7.68953 8.88473 5.7979 11.9801 5.38948 15.2905C4.93807 18.5578 5.86239 21.9972 7.99047 24.5337C10.0326 27.0057 13.1495 28.5534 16.3738 28.6608C19.3832 28.8328 22.5216 27.9085 24.7142 25.8019C26.4338 24.3187 27.2292 22.0616 27.4871 19.8691C23.9188 19.8691 20.3505 19.8906 16.7822 19.8691V15.4409H31.8078C32.5816 20.1915 31.4639 25.544 27.8526 28.9403C25.445 31.3478 22.1132 32.7665 18.7169 33.046C15.428 33.3684 12.0317 32.745 9.10825 31.1544C5.60444 29.2842 2.80999 26.1243 1.43426 22.4056C0.144509 18.9877 0.123013 15.1185 1.32678 11.6792C2.42306 8.5408 4.52965 5.76784 7.23812 3.83322C9.83911 1.9201 12.999 0.866802 16.2234 0.67334Z" fill="#3780FF"/>
<path d="M102.421 1.7915H107.021V32.4875C105.495 32.4875 103.947 32.509 102.421 32.466C102.442 22.2555 102.421 12.0235 102.421 1.7915V1.7915Z" fill="#38B137"/>
<path d="M42.0398 12.4319C44.8772 11.8945 47.9511 12.4964 50.2942 14.1945C52.4222 15.6993 53.9055 18.0638 54.3569 20.6433C54.9373 23.6312 54.2064 26.8986 52.2718 29.2631C50.1867 31.9071 46.7689 33.3258 43.437 33.1108C40.3846 32.9389 37.4182 31.4127 35.6125 28.9192C33.5704 26.1677 33.076 22.3844 34.1938 19.1601C35.3116 15.6993 38.4715 13.0553 42.0398 12.4319V12.4319ZM42.6847 16.5161C41.5239 16.817 40.4491 17.4834 39.6752 18.4292C37.5902 20.9227 37.7191 24.9854 40.0192 27.307C41.3304 28.6397 43.308 29.2631 45.1352 28.8977C46.8333 28.5967 48.3166 27.4574 49.1334 25.9527C50.5521 23.3947 50.1437 19.8694 47.9726 17.8703C46.5754 16.5806 44.5333 16.0432 42.6847 16.5161Z" fill="#FA3913"/>
<path d="M64.825 12.432C68.0709 11.8086 71.6177 12.7115 74.0467 14.99C78.0019 18.5368 78.4319 25.179 75.057 29.2632C73.0149 31.8427 69.7046 33.2614 66.4372 33.111C63.3203 33.025 60.2464 31.4773 58.3978 28.9193C56.3127 26.1033 55.8613 22.2341 57.0435 18.9452C58.2258 15.5919 61.3212 13.0339 64.825 12.432V12.432ZM65.4699 16.5162C64.3091 16.8172 63.2343 17.4835 62.4605 18.4078C60.3969 20.8584 60.4829 24.8566 62.6969 27.1996C64.0082 28.5968 66.0503 29.2847 67.9419 28.8978C69.6186 28.5753 71.1233 27.4576 71.9401 25.9529C73.3374 23.3734 72.9289 19.8481 70.7364 17.8489C69.3391 16.5592 67.297 16.0433 65.4699 16.5162Z" fill="#FCBD06"/>
<path d="M84.1497 13.6785C86.6217 12.1308 89.9105 11.7008 92.576 13.0336C93.4144 13.399 94.1022 14.0224 94.7686 14.6458C94.7901 14.0654 94.7686 13.4635 94.7901 12.8616C96.2303 12.8831 97.6705 12.8616 99.1322 12.8831V31.8424C99.1107 34.7013 98.3799 37.7322 96.3163 39.8173C94.0592 42.1174 90.5984 42.8267 87.4815 42.3538C84.1497 41.8594 81.2477 39.4304 79.958 36.3565C81.2477 35.7331 82.602 35.2387 83.9347 34.6583C84.6871 36.421 86.2133 37.9257 88.1264 38.2696C90.0395 38.6136 92.2536 38.1407 93.5003 36.55C94.8331 34.9163 94.8331 32.6807 94.7686 30.6816C93.7798 31.6489 92.6405 32.5088 91.2648 32.8312C88.2769 33.6695 84.988 32.6377 82.688 30.6171C80.3664 28.5965 78.9907 25.4796 79.1197 22.3843C79.1842 18.8804 81.1618 15.5056 84.1497 13.6785V13.6785ZM88.5993 16.4299C87.2881 16.6449 86.0628 17.3757 85.2245 18.386C83.2039 20.7936 83.2039 24.6413 85.246 27.0058C86.4067 28.4031 88.2769 29.1769 90.0825 28.9835C91.7807 28.8115 93.3499 27.7367 94.1882 26.2535C95.6069 23.7385 95.3705 20.3207 93.4574 18.1281C92.2751 16.7739 90.3835 16.1075 88.5993 16.4299V16.4299Z" fill="#3780FF"/>
<path d="M112.546 14.7745C115.125 12.367 119.102 11.5501 122.412 12.8184C125.551 14.0006 127.55 16.9886 128.56 20.0625C123.896 21.9971 119.253 23.9102 114.588 25.8448C115.233 27.0701 116.222 28.1879 117.554 28.6393C119.424 29.3056 121.66 29.0692 123.229 27.8224C123.853 27.3495 124.347 26.7261 124.82 26.1243C126.002 26.9196 127.184 27.6935 128.367 28.4888C126.69 31.0038 123.874 32.7665 120.843 33.0459C117.49 33.4543 113.922 32.1646 111.75 29.5421C108.182 25.4149 108.526 18.4933 112.546 14.7745V14.7745ZM114.846 18.7512C114.115 19.8045 113.814 21.0943 113.836 22.3625C116.952 21.0728 120.069 19.783 123.186 18.4718C122.67 17.268 121.424 16.5371 120.155 16.3437C118.113 15.9783 115.985 17.0745 114.846 18.7512V18.7512Z" fill="#FA3913"/>
</svg>
