<svg width="31" height="27" viewBox="0 0 31 27" fill="none" xmlns="http://www.w3.org/2000/svg">
<path d="M30.1092 10.8255V23.9985C30.1092 25.605 28.7948 26.9193 27.1884 26.9193H3.82171C2.21525 26.9193 0.900879 25.605 0.900879 23.9985V6.4735C0.900879 4.86704 2.21525 3.55267 3.82171 3.55267H18.5719C18.4843 4.02 18.4259 4.51654 18.4259 5.01309C18.4259 7.1745 19.3752 9.08765 20.8648 10.4312L15.505 13.7756L3.82171 6.4735V9.39434L15.505 16.6964L23.2453 11.8478C24.0339 12.1399 24.8517 12.3152 25.728 12.3152C27.3782 12.3152 28.8825 11.7456 30.1092 10.8255ZM21.3467 5.01309C21.3467 7.43738 23.3037 9.39434 25.728 9.39434C28.1523 9.39434 30.1092 7.43738 30.1092 5.01309C30.1092 2.58879 28.1523 0.631836 25.728 0.631836C23.3037 0.631836 21.3467 2.58879 21.3467 5.01309Z" fill="#FCC028"/>
</svg>
