<svg width="50" height="53" viewBox="0 0 50 53" fill="none" xmlns="http://www.w3.org/2000/svg">
<path d="M43.9847 37.9011L35.7202 35.8393C35.6894 35.7928 35.6555 35.7479 35.6151 35.7075L33.1534 33.2448V30.8873C33.3582 30.6791 33.5588 30.4629 33.754 30.2375C36.0509 27.585 37.4319 24.0114 37.6428 20.1751C37.6513 20.0212 37.6591 19.8676 37.6668 19.7141C37.6924 19.2065 37.7166 18.7271 37.765 18.2434L38.5801 10.0923C38.8319 7.57273 38.0021 5.05117 36.3031 3.17375C34.6042 1.29622 32.1774 0.219482 29.6453 0.219482H20.5099C17.9778 0.219482 15.5511 1.29622 13.852 3.17364C12.153 5.05106 11.3231 7.57285 11.575 10.0923L12.3895 18.2378C12.438 18.7234 12.4625 19.2068 12.4884 19.7187C12.4961 19.8708 12.5038 20.023 12.5121 20.1751C12.723 24.0114 14.104 27.585 16.4009 30.2375C16.596 30.4629 16.7967 30.6789 17.0016 30.8873V33.2448L14.5398 35.7074C14.5003 35.7468 14.4671 35.7903 14.4369 35.8355L6.16999 37.9012C2.66668 38.777 0.737305 40.9272 0.737305 43.9556V49.8601C0.737305 51.3237 1.928 52.5144 3.39158 52.5144H46.7636C48.2272 52.5144 49.4179 51.3237 49.4179 49.8601V43.9555C49.4179 40.9272 47.4885 38.777 43.9847 37.9011ZM24.174 47.0929H25.9812C26.0442 47.0929 26.1064 47.0898 26.1684 47.0855L26.8041 50.8202H23.3511L23.9867 47.0855C24.0487 47.0898 24.111 47.0929 24.174 47.0929ZM26.9412 44.4386C26.9412 44.968 26.5106 45.3987 25.9812 45.3987H24.174C23.6446 45.3987 23.2139 44.968 23.2139 44.4386V43.0848L25.0776 41.8424L26.9412 43.0848V44.4386ZM18.696 32.3398C20.6123 33.7097 22.8042 34.4427 25.0776 34.4427C27.351 34.4427 29.5429 33.7097 31.4591 32.3398V33.2448L25.0776 39.6263L18.696 33.2448V32.3398ZM28.2631 41.9298C28.2621 41.9292 28.2612 41.9287 28.2603 41.928L26.4072 40.6926L32.3061 34.7936L33.9667 36.4548C33.4064 37.4658 32.0904 39.8341 30.2324 43.1752C30.2289 43.1815 30.2216 43.1946 30.2008 43.1997C30.1768 43.2056 30.1597 43.1941 30.154 43.1904L28.2631 41.9298ZM15.1082 4.31046C16.4867 2.78724 18.4556 1.9137 20.5099 1.9137H29.6453C31.6997 1.9137 33.6685 2.78724 35.047 4.31046C36.4255 5.83356 37.0987 7.8795 36.8943 9.92352L36.3785 15.0816C35.2339 12.3539 33.9675 10.6067 33.8929 10.505C33.623 10.1367 33.1093 10.0488 32.7323 10.3063C30.5061 11.8261 20.5912 12.0196 16.9579 11.9661C16.7128 11.9614 16.478 12.0651 16.3144 12.2479C15.2763 13.4066 14.4596 14.7095 13.8537 15.8519L13.261 9.92363C13.0564 7.87961 13.7298 5.83367 15.1082 4.31046ZM14.204 20.0822C14.1957 19.9324 14.1882 19.7827 14.1806 19.633C14.1754 19.5294 14.17 19.4246 14.1644 19.3197C14.347 18.8015 15.4059 15.9453 17.3275 13.6647C19.6716 13.6852 29.2454 13.6699 32.9275 12.1083C33.6535 13.2536 35.1842 15.9346 35.9916 19.3002C35.9858 19.4102 35.9802 19.52 35.9747 19.6286C35.967 19.7796 35.9594 19.9307 35.9511 20.0822C35.5607 27.1848 30.7845 32.7485 25.0776 32.7485C19.3707 32.7485 14.5944 27.1848 14.204 20.0822ZM17.849 34.7936L23.748 40.6926L21.8945 41.9282C21.8938 41.9287 21.893 41.9292 21.8923 41.9297L20.0011 43.1905C19.9956 43.1944 19.9784 43.2057 19.9544 43.1998C19.9336 43.1948 19.9263 43.1816 19.9229 43.1754C18.0649 39.8342 16.7489 37.4659 16.1886 36.4549L17.849 34.7936ZM2.43152 49.8601V43.9556C2.43152 41.7171 3.82756 40.2331 6.58078 39.5448L14.8229 37.4855C15.3113 38.3674 16.324 40.1897 18.4422 43.9988C18.6783 44.4232 19.0842 44.7323 19.5557 44.8463C19.6908 44.8791 19.8282 44.8951 19.9653 44.8951C20.3091 44.8951 20.6501 44.7939 20.941 44.6001L21.5198 44.2142V44.4385C21.5198 45.2135 21.8538 45.9119 22.3854 46.3977L21.6326 50.8202H10.5638V46.2458C10.5638 45.7779 10.1845 45.3987 9.71667 45.3987C9.24883 45.3987 8.86956 45.7779 8.86956 46.2458V50.8202H3.39158C2.86219 50.8202 2.43152 50.3895 2.43152 49.8601ZM47.7236 49.8601C47.7236 50.3895 47.293 50.8202 46.7636 50.8202H41.2856V46.2458C41.2856 45.7779 40.9063 45.3987 40.4385 45.3987C39.9707 45.3987 39.5914 45.7779 39.5914 46.2458V50.8202H28.5226L27.7698 46.3978C28.3013 45.9121 28.6353 45.2136 28.6353 44.4386V44.2143L29.2142 44.6002C29.505 44.7942 29.846 44.8952 30.1898 44.8952C30.327 44.8952 30.4645 44.8791 30.5995 44.8465C31.0709 44.7323 31.4769 44.4234 31.7129 43.9988C33.8289 40.1937 34.8417 38.3713 35.3307 37.4882L43.5742 39.5448C46.3276 40.2331 47.7236 41.7171 47.7236 43.9555V49.8601Z" fill="black"/>
</svg>
