<svg width="35" height="35" viewBox="0 0 35 35" fill="none" xmlns="http://www.w3.org/2000/svg">
<path fill-rule="evenodd" clip-rule="evenodd" d="M23.8943 2.78114H11.1157C10.5508 2.78114 10.0091 3.00553 9.60969 3.40494C9.21028 3.80435 8.98589 4.34606 8.98589 4.91092V17.6896C8.98589 17.972 8.8737 18.2428 8.674 18.4426C8.47429 18.6423 8.20343 18.7544 7.92101 18.7544C7.63858 18.7544 7.36772 18.6423 7.16802 18.4426C6.96831 18.2428 6.85612 17.972 6.85612 17.6896V4.91092C6.85612 3.78121 7.30489 2.69778 8.10371 1.89896C8.90253 1.10014 9.98597 0.651367 11.1157 0.651367L23.8943 0.651367C25.024 0.651367 26.1074 1.10014 26.9063 1.89896C27.7051 2.69778 28.1539 3.78121 28.1539 4.91092V17.6896C28.1539 17.972 28.0417 18.2428 27.842 18.4426C27.6423 18.6423 27.3714 18.7544 27.089 18.7544C26.8066 18.7544 26.5357 18.6423 26.336 18.4426C26.1363 18.2428 26.0241 17.972 26.0241 17.6896V4.91092C26.0241 4.34606 25.7997 3.80435 25.4003 3.40494C25.0009 3.00553 24.4592 2.78114 23.8943 2.78114ZM26.0241 30.4682C26.0241 31.0331 25.7997 31.5748 25.4003 31.9742C25.0009 32.3736 24.4592 32.598 23.8943 32.598H11.1157C10.5508 32.598 10.0091 32.3736 9.60969 31.9742C9.21028 31.5748 8.98589 31.0331 8.98589 30.4682V26.2087C8.98589 25.9262 8.8737 25.6554 8.674 25.4557C8.47429 25.256 8.20343 25.1438 7.92101 25.1438C7.63858 25.1438 7.36772 25.256 7.16802 25.4557C6.96831 25.6554 6.85612 25.9262 6.85612 26.2087V30.4682C6.85612 31.5979 7.30489 32.6813 8.10371 33.4802C8.90253 34.279 9.98597 34.7278 11.1157 34.7278H23.8943C25.024 34.7278 26.1074 34.279 26.9063 33.4802C27.7051 32.6813 28.1539 31.5979 28.1539 30.4682V26.2087C28.1539 25.9262 28.0417 25.6554 27.842 25.4557C27.6423 25.256 27.3714 25.1438 27.089 25.1438C26.8066 25.1438 26.5357 25.256 26.336 25.4557C26.1363 25.6554 26.0241 25.9262 26.0241 26.2087V30.4682ZM4.1151 17.5916C4.37154 17.4733 4.57047 17.2579 4.66813 16.9929C4.76578 16.7279 4.75417 16.4349 4.63583 16.1785C4.57724 16.0515 4.49421 15.9373 4.39148 15.8424C4.28875 15.7475 4.16834 15.6738 4.03712 15.6255C3.77212 15.5278 3.47917 15.5394 3.22272 15.6578C2.48369 15.9985 1.82985 16.3989 1.34426 16.8717C0.858675 17.3531 0.466797 17.9856 0.466797 18.7544C0.466797 19.9173 1.33574 20.7564 2.2196 21.3123C3.1567 21.9044 4.44096 22.3985 5.93606 22.7946C8.93904 23.5954 13.0282 24.0789 17.505 24.0789C17.7158 24.0789 17.9246 24.0789 18.1311 24.0746L15.6862 26.5196C15.5872 26.6186 15.5086 26.7362 15.455 26.8655C15.4015 26.9949 15.3739 27.1335 15.3739 27.2735C15.3739 27.4136 15.4015 27.5522 15.455 27.6816C15.5086 27.8109 15.5872 27.9285 15.6862 28.0275C15.8861 28.2274 16.1573 28.3398 16.4401 28.3398C16.5801 28.3398 16.7188 28.3122 16.8481 28.2586C16.9775 28.205 17.095 28.1265 17.194 28.0275L21.4536 23.7679C21.5528 23.669 21.6314 23.5515 21.6851 23.4221C21.7388 23.2928 21.7664 23.1541 21.7664 23.014C21.7664 22.8739 21.7388 22.7352 21.6851 22.6059C21.6314 22.4765 21.5528 22.359 21.4536 22.2601L17.194 18.0005C17.095 17.9015 16.9775 17.823 16.8481 17.7694C16.7188 17.7158 16.5801 17.6882 16.4401 17.6882C16.3001 17.6882 16.1614 17.7158 16.0321 17.7694C15.9027 17.823 15.7852 17.9015 15.6862 18.0005C15.5872 18.0995 15.5086 18.2171 15.455 18.3464C15.4015 18.4758 15.3739 18.6144 15.3739 18.7544C15.3739 18.8945 15.4015 19.0331 15.455 19.1625C15.5086 19.2918 15.5872 19.4094 15.6862 19.5084L18.1248 21.9449L17.505 21.9491C13.1603 21.9491 9.26276 21.4784 6.48554 20.7373C5.08841 20.3646 4.03417 19.9407 3.35477 19.5126C2.62213 19.0505 2.59657 18.7672 2.59657 18.7544C2.59657 18.7481 2.59657 18.6288 2.83511 18.3924C3.08003 18.1539 3.49534 17.877 4.11297 17.5916H4.1151ZM31.7873 15.6578C31.5308 15.5394 31.2379 15.5278 30.9729 15.6255C30.7078 15.7231 30.4925 15.922 30.3742 16.1785C30.2558 16.4349 30.2442 16.7279 30.3419 16.9929C30.4395 17.2579 30.6384 17.4733 30.8949 17.5916C31.5168 17.877 31.93 18.1539 32.1727 18.3945C32.4134 18.6288 32.4134 18.7481 32.4134 18.7544C32.4134 18.7608 32.4134 18.8929 32.1365 19.1527C31.8554 19.4125 31.3869 19.7065 30.6947 20.0046C29.321 20.601 27.2956 21.1185 24.8101 21.4678C24.5344 21.5117 24.2869 21.6621 24.1209 21.8867C23.955 22.1113 23.884 22.3921 23.9231 22.6685C23.9622 22.945 24.1083 23.1951 24.33 23.3649C24.5517 23.5346 24.8312 23.6106 25.1083 23.5763C27.6896 23.2142 29.9216 22.6605 31.5402 21.9619C32.3495 21.6126 33.0587 21.2016 33.5848 20.7117C34.1087 20.224 34.5432 19.568 34.5432 18.7544C34.5432 17.9835 34.1513 17.3488 33.6657 16.8739C33.1801 16.3989 32.5263 15.9985 31.7873 15.6578ZM16.4401 4.91092C16.1577 4.91092 15.8868 5.02311 15.6871 5.22281C15.4874 5.42252 15.3752 5.69338 15.3752 5.9758C15.3752 6.25823 15.4874 6.52909 15.6871 6.72879C15.8868 6.9285 16.1577 7.04069 16.4401 7.04069H18.5699C18.8523 7.04069 19.1232 6.9285 19.3229 6.72879C19.5226 6.52909 19.6348 6.25823 19.6348 5.9758C19.6348 5.69338 19.5226 5.42252 19.3229 5.22281C19.1232 5.02311 18.8523 4.91092 18.5699 4.91092H16.4401Z" fill="#FCC028"/>
</svg>
