<svg width="136" height="35" viewBox="0 0 136 35" fill="none" xmlns="http://www.w3.org/2000/svg">
<path fill-rule="evenodd" clip-rule="evenodd" d="M43.8174 27.3735L45.4976 23.4691C47.3124 24.8262 49.7304 25.5317 52.1161 25.5317C53.8771 25.5317 54.9918 24.8532 54.9918 23.8246C54.9649 20.9488 44.4421 23.1999 44.3613 15.989C44.3344 12.327 47.5871 9.50513 52.1969 9.50513C54.938 9.50513 57.6737 10.1837 59.6286 11.7292L58.056 15.7144C56.2681 14.5727 54.044 13.7595 51.9276 13.7595C50.4897 13.7595 49.5419 14.438 49.5419 15.3051C49.5689 18.127 60.1725 16.5814 60.2802 23.4691C60.2802 27.2119 57.1082 29.8453 52.5523 29.8453C49.2134 29.8399 46.1492 29.0537 43.8174 27.3735V27.3735ZM108.338 22.0582C107.498 23.523 105.926 24.5247 104.106 24.5247C101.418 24.5247 99.2534 22.3544 99.2534 19.6725C99.2534 16.9907 101.424 14.8204 104.106 14.8204C105.92 14.8204 107.498 15.8221 108.338 17.2869L112.975 14.7127C111.241 11.6215 107.902 9.50513 104.106 9.50513C98.4887 9.50513 93.9327 14.0611 93.9327 19.6779C93.9327 25.2948 98.4887 29.8507 104.106 29.8507C107.929 29.8507 111.241 27.7612 112.975 24.6431L108.338 22.0582ZM62.612 1.06641H68.4173V29.463H62.612V1.06641ZM115.253 1.06641V29.463H121.058V20.9435L127.946 29.463H135.378L126.616 19.344L134.726 9.90364H127.618L121.053 17.7392V1.06641H115.253Z" fill="black"/>
<path d="M85.6667 22.1123C84.8265 23.4963 83.0925 24.5249 81.1376 24.5249C78.4504 24.5249 76.2855 22.3546 76.2855 19.6728C76.2855 16.9909 78.4558 14.8207 81.1376 14.8207C83.0925 14.8207 84.8265 15.9031 85.6667 17.314V22.1123ZM85.6667 9.90928V12.2142C84.7188 10.6148 82.3601 9.5 79.8882 9.5C74.7884 9.5 70.7764 14.0021 70.7764 19.6459C70.7764 25.2896 74.7884 29.8456 79.8882 29.8456C82.3547 29.8456 84.7135 28.7362 85.6667 27.1314V29.4363H91.472V9.90928H85.6667Z" fill="black"/>
<path fill-rule="evenodd" clip-rule="evenodd" d="M7.93536 22.0846C7.93536 24.0664 6.33594 25.6658 4.35416 25.6658C2.37238 25.6658 0.772949 24.061 0.772949 22.0846C0.772949 20.1082 2.37238 18.5034 4.35416 18.5034H7.93536V22.0846ZM9.72327 22.0846C9.72327 20.1028 11.3227 18.5034 13.3045 18.5034C15.2863 18.5034 16.8857 20.1028 16.8857 22.0846V31.0349C16.8857 33.0167 15.2863 34.6162 13.3045 34.6162C11.3227 34.6162 9.72327 33.0167 9.72327 31.0349V22.0846Z" fill="#E01E5A"/>
<path fill-rule="evenodd" clip-rule="evenodd" d="M13.3046 7.71173C11.3228 7.71173 9.72335 6.11231 9.72335 4.13052C9.72335 2.14874 11.3228 0.549316 13.3046 0.549316C15.2863 0.549316 16.8858 2.14874 16.8858 4.13052V7.71173H13.3046ZM13.3046 9.52657C15.2863 9.52657 16.8858 11.126 16.8858 13.1078C16.8858 15.0896 15.2863 16.689 13.3046 16.689H4.3273C2.34552 16.689 0.746094 15.0842 0.746094 13.1078C0.746094 11.1314 2.34552 9.52657 4.3273 9.52657H13.3046Z" fill="#36C5F0"/>
<path fill-rule="evenodd" clip-rule="evenodd" d="M27.651 13.1078C27.651 11.126 29.2504 9.52657 31.2322 9.52657C33.214 9.52657 34.8134 11.126 34.8134 13.1078C34.8134 15.0896 33.214 16.689 31.2322 16.689H27.651V13.1078ZM25.8631 13.1078C25.8631 15.0896 24.2637 16.689 22.2819 16.689C20.3001 16.689 18.7007 15.0896 18.7007 13.1078V4.13052C18.7007 2.14874 20.3001 0.549316 22.2819 0.549316C24.2637 0.549316 25.8631 2.14874 25.8631 4.13052V13.1078Z" fill="#2EB67D"/>
<path fill-rule="evenodd" clip-rule="evenodd" d="M22.2819 27.4537C24.2637 27.4537 25.8631 29.0532 25.8631 31.0349C25.8631 33.0167 24.2637 34.6162 22.2819 34.6162C20.3001 34.6162 18.7007 33.0167 18.7007 31.0349V27.4537H22.2819ZM22.2819 25.6658C20.3001 25.6658 18.7007 24.0664 18.7007 22.0846C18.7007 20.1028 20.3001 18.5034 22.2819 18.5034H31.2591C33.2409 18.5034 34.8404 20.1028 34.8404 22.0846C34.8404 24.0664 33.2409 25.6658 31.2591 25.6658H22.2819Z" fill="#ECB22E"/>
</svg>
