<svg width="62" height="79" viewBox="0 0 62 79" fill="none" xmlns="http://www.w3.org/2000/svg">
<path d="M52.4302 74.0362V78.8063H53.9599V75.6303H59.5275V78.8063H61.0561V74.0444L52.4302 74.0362ZM53.7895 72.4931H59.6716C60.4886 72.3307 61.0962 71.6097 61.2675 70.9122H52.1938C52.3634 71.6099 52.9799 72.3307 53.7895 72.4931ZM47.7972 78.8093C48.5685 78.4824 48.9834 77.9168 49.1423 77.255H42.2813L42.2856 70.9162L40.7476 70.9205V78.8093H47.7972ZM29.3103 72.4718H34.7427C35.5617 72.2339 36.2494 71.61 36.417 70.9183H27.7876V75.5803H34.8505V77.2162L29.3103 77.2206C28.4422 77.4627 27.7059 78.0457 27.3387 78.8156L27.7876 78.8074H36.368V74.0303H29.3103V72.4718ZM15.8997 72.4868H21.7798C22.5979 72.3238 23.206 71.6034 23.3764 70.9053H14.3031C14.4725 71.6034 15.0894 72.3238 15.8997 72.4868ZM15.8997 75.6046H21.7798C22.5979 75.4433 23.206 74.7223 23.3764 74.0237H14.3031C14.4725 74.7225 15.0894 75.4433 15.8997 75.6046ZM15.8997 78.8085H21.7798C22.5979 78.6458 23.206 77.9251 23.3764 77.2273H14.3031C14.4725 77.9253 15.0894 78.6458 15.8997 78.8085ZM0.602051 70.9244C0.778819 71.6139 1.37574 72.3185 2.19471 72.4951H4.6699L4.79616 72.5449V78.7908H6.34179V72.5449L6.48221 72.4951H8.95957C9.78769 72.2818 10.3718 71.6139 10.5455 70.9244V70.9092H0.602051V70.9244Z" fill="#E82127"/>
<path d="M30.9379 55.3182L38.6609 11.8839C46.0222 11.8839 48.3442 12.6911 48.6794 15.986C48.6794 15.986 53.6176 14.1447 56.1082 10.4051C46.389 5.90146 36.6235 5.69835 36.6235 5.69835L30.9251 12.6389L30.9379 12.638L25.2395 5.69727C25.2395 5.69727 15.4738 5.90059 5.75586 10.4043C8.24433 14.1438 13.1845 15.9851 13.1845 15.9851C13.5217 12.6901 15.8408 11.8828 23.1527 11.8776L30.9379 55.3182Z" fill="#E82127"/>
<path d="M30.935 3.69389C38.7916 3.63381 47.7843 4.90928 56.9902 8.92161C58.2206 6.70701 58.5369 5.72825 58.5369 5.72825C48.4736 1.74683 39.0493 0.384276 30.9339 0.350098C22.8189 0.384276 13.3951 1.74705 3.33301 5.72825C3.33301 5.72825 3.78189 6.93384 4.87864 8.92161C14.0828 4.90928 23.0771 3.63381 30.9339 3.69389H30.935Z" fill="#E82127"/>
</svg>
